<svg width="19" height="19" viewBox="0 0 19 19" fill="none" xmlns="http://www.w3.org/2000/svg">
<path d="M17.0713 7.52051C17.198 8.39425 17.1982 9.53915 17.1982 11.083C17.1982 14.0686 17.1981 15.5618 16.2822 16.4893C15.3664 17.4167 13.8923 17.417 10.9443 17.417H7.81738C4.86944 17.417 3.39535 17.4166 2.47949 16.4893C1.56364 15.5618 1.56348 14.0686 1.56348 11.083C1.56348 9.53906 1.56374 8.39427 1.69043 7.52051C3.47009 8.692 4.61108 9.43928 5.66797 9.89941V10.292C5.66814 10.6198 5.93021 10.8857 6.25391 10.8857C6.57338 10.8857 6.833 10.6266 6.83984 10.3047C8.50514 10.7493 10.2566 10.7493 11.9219 10.3047C11.9287 10.6266 12.1883 10.8857 12.5078 10.8857C12.8314 10.8857 13.0936 10.6197 13.0938 10.292V9.89941C14.1507 9.4393 15.2915 8.69206 17.0713 7.52051ZM10.9443 4.75C13.8923 4.75 15.3664 4.75025 16.2822 5.67773C16.4734 5.87132 16.6245 6.08955 16.7441 6.34082C16.6993 6.35635 16.6558 6.37796 16.6143 6.40527C14.9723 7.48612 13.9402 8.16204 13.083 8.5957C13.031 8.32173 12.7935 8.11433 12.5078 8.11426C12.1841 8.11426 11.9211 8.38024 11.9209 8.70801V9.07129C10.2642 9.57742 8.49649 9.57758 6.83984 9.07129V8.70801C6.83967 8.38026 6.57757 8.1143 6.25391 8.11426C5.96811 8.11426 5.72967 8.32161 5.67773 8.5957C4.82067 8.16203 3.78909 7.4859 2.14746 6.40527C2.1058 6.37787 2.06157 6.35636 2.0166 6.34082C2.13631 6.08939 2.28825 5.87142 2.47949 5.67773C3.39535 4.75024 4.8693 4.75 7.81738 4.75H10.9443ZM9.38086 0.989258C10.6581 0.989334 11.7434 1.81655 12.1455 2.96875C12.2534 3.27784 12.0932 3.61721 11.7881 3.72656C11.4828 3.83584 11.1479 3.67343 11.04 3.36426C10.7983 2.67174 10.1457 2.17683 9.38086 2.17676C8.61603 2.17676 7.96348 2.67174 7.72168 3.36426C7.61378 3.6734 7.2789 3.83577 6.97363 3.72656C6.66834 3.61728 6.5083 3.27793 6.61621 2.96875C7.01838 1.81653 8.10358 0.989258 9.38086 0.989258Z" fill="#637CF9"/>
</svg>
