<svg width="27" height="27" viewBox="0 0 27 27" fill="none" xmlns="http://www.w3.org/2000/svg">
<path fill-rule="evenodd" clip-rule="evenodd" d="M13.3333 26.6667C7.04794 26.6667 3.90524 26.6667 1.95262 24.714C0 22.7614 0 19.6187 0 13.3333C0 7.04794 0 3.90524 1.95262 1.95262C3.90524 0 7.04794 0 13.3333 0C19.6187 0 22.7614 0 24.714 1.95262C26.6667 3.90524 26.6667 7.04794 26.6667 13.3333C26.6667 19.6187 26.6667 22.7614 24.714 24.714C22.7614 26.6667 19.6187 26.6667 13.3333 26.6667ZM18.7071 9.29289C19.0976 9.68342 19.0976 10.3166 18.7071 10.7071L12.0404 17.3738C11.6499 17.7643 11.0168 17.7643 10.6262 17.3738L7.95956 14.7071C7.56904 14.3166 7.56904 13.6834 7.95956 13.2929C8.35008 12.9024 8.98325 12.9024 9.37377 13.2929L11.3333 15.2525L17.2929 9.29289C17.6834 8.90237 18.3166 8.90237 18.7071 9.29289Z" fill="white"/>
</svg>
