<svg width="25" height="29" viewBox="0 0 25 29" fill="none" xmlns="http://www.w3.org/2000/svg">
<path fill-rule="evenodd" clip-rule="evenodd" d="M14.7605 4.71812C14.7605 2.11237 16.9082 0 19.5576 0C22.207 0 24.3548 2.11237 24.3548 4.71812C24.3548 7.32387 22.207 9.43624 19.5576 9.43624C18.2198 9.43624 17.0108 8.89737 16.1416 8.03043L9.50076 12.4977C9.56216 12.7991 9.59432 13.1104 9.59432 13.4285C9.59432 14.0584 9.46834 14.6605 9.23991 15.2108L16.5216 19.9376C17.348 19.2727 18.4055 18.8725 19.5576 18.8725C22.207 18.8725 24.3548 20.9849 24.3548 23.5906C24.3548 26.1963 22.207 28.3087 19.5576 28.3087C16.9082 28.3087 14.7605 26.1963 14.7605 23.5906C14.7605 22.9081 14.9083 22.2584 15.1741 21.6719L7.95123 16.9834C7.10867 17.7069 6.00504 18.1466 4.79716 18.1466C2.14776 18.1466 0 16.0342 0 13.4285C0 10.8227 2.14776 8.71038 4.79716 8.71038C6.32065 8.71038 7.67682 9.40876 8.55491 10.4957L14.991 6.16624C14.8413 5.70929 14.7605 5.22239 14.7605 4.71812Z" fill="#637CF9"/>
</svg>
