<svg width="23" height="29" viewBox="0 0 23 29" fill="none" xmlns="http://www.w3.org/2000/svg">
<path d="M2.39182 11.2023L6.77875 5.33807C9.61446 1.54746 11.0323 -0.347845 12.3551 0.0526732C13.678 0.453191 13.678 2.77778 13.678 7.42696V7.86532C13.678 9.54218 13.678 10.3806 14.2203 10.9065L14.249 10.9338C14.803 11.4486 15.6862 11.4486 17.4527 11.4486C20.6315 11.4486 22.221 11.4486 22.7581 12.4011C22.767 12.4168 22.7757 12.4327 22.7841 12.4488C23.2912 13.416 22.3709 14.6462 20.5303 17.1065L16.1434 22.9706C13.3076 26.7613 11.8897 28.6566 10.5669 28.256C9.24405 27.8555 9.24408 25.5309 9.24415 20.8817L9.24416 20.4435C9.24418 18.7666 9.2442 17.9282 8.70189 17.4023L8.67319 17.375C8.11918 16.8602 7.23594 16.8602 5.46945 16.8602C2.29062 16.8602 0.701199 16.8602 0.164032 15.9077C0.155138 15.8919 0.146492 15.876 0.138096 15.86C-0.368988 14.8928 0.551282 13.6626 2.39182 11.2023Z" fill="#637CF9"/>
</svg>
