<svg width="31" height="31" viewBox="0 0 31 31" fill="none" xmlns="http://www.w3.org/2000/svg">
<path fill-rule="evenodd" clip-rule="evenodd" d="M1.07448 0C0.48106 0 0 0.475284 0 1.06158C0 1.64787 0.48106 2.12315 1.07448 2.12315H3.93975V13.0928C3.93975 17.4299 3.93975 19.5984 5.37841 20.9458C6.81707 22.2931 9.13256 22.2931 13.7635 22.2931H14.3264V27.2988L12.055 28.4208C11.5243 28.683 11.3091 29.3206 11.5745 29.845C11.8399 30.3694 12.4853 30.582 13.0161 30.3198L15.4008 29.1417L17.7856 30.3198C18.3164 30.582 18.9618 30.3694 19.2271 29.845C19.4925 29.3206 19.2774 28.683 18.7466 28.4208L16.4753 27.2988V22.2931H17.0381C21.6691 22.2931 23.9846 22.2931 25.4233 20.9458C26.8619 19.5984 26.8619 17.4299 26.8619 13.0928V2.12315H29.7272C30.3206 2.12315 30.8017 1.64787 30.8017 1.06158C30.8017 0.475284 30.3206 0 29.7272 0H1.07448ZM20.4585 9.51126C20.8781 9.92583 20.8781 10.598 20.4585 11.0126L18.5714 12.8771C18.3637 13.0824 18.1391 13.3045 17.9239 13.4667C17.6719 13.6567 17.3112 13.8612 16.8335 13.8612C16.3557 13.8612 15.9951 13.6567 15.743 13.4667C15.5279 13.3045 15.3033 13.0824 15.0956 12.8771L14.2215 12.0134C14.1211 11.9143 14.0397 11.8339 13.9682 11.7655C13.8967 11.8339 13.8153 11.9143 13.7149 12.0134L11.8627 13.8434C11.4431 14.258 10.7628 14.258 10.3432 13.8434C9.92355 13.4289 9.92355 12.7567 10.3432 12.3421L12.2303 10.4776C12.438 10.2723 12.6626 10.0502 12.8777 9.88801C13.1298 9.69801 13.4905 9.49348 13.9682 9.49348C14.4459 9.49348 14.8066 9.69801 15.0587 9.88801C15.2738 10.0502 15.4983 10.2722 15.706 10.4776L16.5802 11.3413C16.6806 11.4404 16.762 11.5208 16.8335 11.5892C16.905 11.5208 16.9864 11.4404 17.0867 11.3413L18.939 9.51126C19.3586 9.09669 20.0389 9.09669 20.4585 9.51126Z" fill="#637CF9"/>
</svg>
