<svg width="19" height="19" viewBox="0 0 19 19" fill="none" xmlns="http://www.w3.org/2000/svg">
<path fill-rule="evenodd" clip-rule="evenodd" d="M17.3077 9.44007C17.3077 13.7848 13.7856 17.3069 9.44086 17.3069C5.09613 17.3069 1.57404 13.7848 1.57404 9.44007C1.57404 5.09534 5.09613 1.57324 9.44086 1.57324C13.7856 1.57324 17.3077 5.09534 17.3077 9.44007ZM11.8009 7.08002C11.8009 8.38344 10.7443 9.44007 9.44086 9.44007C8.13744 9.44007 7.08081 8.38344 7.08081 7.08002C7.08081 5.7766 8.13744 4.71997 9.44086 4.71997C10.7443 4.71997 11.8009 5.7766 11.8009 7.08002ZM9.44085 16.1269C10.8443 16.1269 12.1468 15.6945 13.2224 14.9557C13.6974 14.6293 13.9004 14.0077 13.6242 13.5019C13.0517 12.4533 11.8719 11.8001 9.44081 11.8001C7.00977 11.8001 5.82996 12.4532 5.25739 13.5018C4.98119 14.0077 5.1842 14.6293 5.65924 14.9556C6.73482 15.6945 8.03734 16.1269 9.44085 16.1269Z" fill="#637CF9"/>
</svg>
