<svg width="19" height="19" viewBox="0 0 19 19" fill="none" xmlns="http://www.w3.org/2000/svg">
<path d="M12.5875 4.71997C12.5875 6.45786 11.1787 7.8667 9.4408 7.8667C7.70291 7.8667 6.29407 6.45786 6.29407 4.71997C6.29407 2.98208 7.70291 1.57324 9.4408 1.57324C11.1787 1.57324 12.5875 2.98208 12.5875 4.71997Z" fill="#637CF9"/>
<path d="M12.3332 10.6226C11.961 10.6271 11.6141 10.6407 11.3118 10.6813C10.8061 10.7493 10.2525 10.9118 9.7951 11.3692C9.33769 11.8266 9.17517 12.3802 9.10718 12.886C9.04607 13.3404 9.04615 13.8957 9.04624 14.4862V14.6214C9.04615 15.2119 9.04607 15.7672 9.10718 16.2216C9.15489 16.5765 9.24915 16.955 9.45917 17.3072C9.45265 17.3072 9.44612 17.3072 9.43958 17.3072C3.14612 17.3072 3.14612 15.7222 3.14612 13.7671C3.14612 11.812 5.9638 10.2271 9.43958 10.2271C10.4829 10.2271 11.4669 10.3698 12.3332 10.6226Z" fill="#637CF9"/>
<path fill-rule="evenodd" clip-rule="evenodd" d="M12.9806 17.3071C11.6826 17.3071 11.0336 17.3071 10.6304 16.9038C10.2272 16.5006 10.2272 15.8516 10.2272 14.5537C10.2272 13.2557 10.2272 12.6067 10.6304 12.2035C11.0336 11.8003 11.6826 11.8003 12.9806 11.8003C14.2785 11.8003 14.9275 11.8003 15.3307 12.2035C15.7339 12.6067 15.7339 13.2557 15.7339 14.5537C15.7339 15.8516 15.7339 16.5006 15.3307 16.9038C14.9275 17.3071 14.2785 17.3071 12.9806 17.3071ZM14.5288 13.9604C14.708 13.7812 14.708 13.4906 14.5288 13.3114C14.3496 13.1322 14.059 13.1322 13.8798 13.3114L12.3687 14.8225L12.0813 14.5351C11.9021 14.3559 11.6116 14.3559 11.4323 14.5351C11.2531 14.7143 11.2531 15.0049 11.4323 15.1841L12.0442 15.796C12.2234 15.9752 12.514 15.9752 12.6932 15.796L14.5288 13.9604Z" fill="#637CF9"/>
</svg>
