<svg width="83" height="12" viewBox="0 0 83 12" fill="none" xmlns="http://www.w3.org/2000/svg">
<path d="M5.92828 9.93331L3.05446 11.746C2.92751 11.8305 2.79478 11.8668 2.65629 11.8547C2.51779 11.8426 2.3966 11.7943 2.29273 11.7097C2.18886 11.6251 2.10807 11.5195 2.05036 11.3929C1.99265 11.2662 1.98111 11.1241 2.01574 10.9665L2.77747 7.54062L0.232589 5.23855C0.117175 5.12979 0.0451563 5.00581 0.0165336 4.8666C-0.0120891 4.72739 -0.00354847 4.59156 0.0421555 4.45911C0.0878595 4.32667 0.157108 4.21791 0.249901 4.13284C0.342694 4.04776 0.469649 3.99338 0.630767 3.9697L3.98932 3.66155L5.28773 0.435036C5.34543 0.290024 5.435 0.181265 5.55641 0.108759C5.67783 0.0362528 5.80178 0 5.92828 0C6.05477 0 6.17872 0.0362528 6.30014 0.108759C6.42156 0.181265 6.51112 0.290024 6.56882 0.435036L7.86723 3.66155L11.2258 3.9697C11.3874 3.99387 11.5143 4.04825 11.6067 4.13284C11.699 4.21743 11.7682 4.32619 11.8144 4.45911C11.8606 4.59204 11.8693 4.72811 11.8407 4.86732C11.8121 5.00653 11.7398 5.13028 11.624 5.23855L9.07908 7.54062L9.84081 10.9665C9.87544 11.1236 9.8639 11.2657 9.80619 11.3929C9.74848 11.52 9.66769 11.6256 9.56382 11.7097C9.45995 11.7938 9.33876 11.8421 9.20027 11.8547C9.06177 11.8673 8.92904 11.831 8.80209 11.746L5.92828 9.93331Z" fill="#F2B855"/>
<path d="M23.714 9.93331L20.8402 11.746C20.7132 11.8305 20.5805 11.8668 20.442 11.8547C20.3035 11.8426 20.1823 11.7943 20.0784 11.7097C19.9746 11.6251 19.8938 11.5195 19.8361 11.3929C19.7784 11.2662 19.7668 11.1241 19.8014 10.9665L20.5632 7.54062L18.0183 5.23855C17.9029 5.12979 17.8309 5.00581 17.8022 4.8666C17.7736 4.72739 17.7822 4.59156 17.8279 4.45911C17.8736 4.32667 17.9428 4.21791 18.0356 4.13284C18.1284 4.04776 18.2554 3.99338 18.4165 3.9697L21.775 3.66155L23.0734 0.435036C23.1311 0.290024 23.2207 0.181265 23.3421 0.108759C23.4635 0.0362528 23.5875 0 23.714 0C23.8405 0 23.9644 0.0362528 24.0858 0.108759C24.2073 0.181265 24.2968 0.290024 24.3545 0.435036L25.6529 3.66155L29.0115 3.9697C29.1731 3.99387 29.3 4.04825 29.3924 4.13284C29.4847 4.21743 29.5539 4.32619 29.6001 4.45911C29.6463 4.59204 29.655 4.72811 29.6264 4.86732C29.5978 5.00653 29.5255 5.13028 29.4097 5.23855L26.8648 7.54062L27.6265 10.9665C27.6611 11.1236 27.6496 11.2657 27.5919 11.3929C27.5342 11.52 27.4534 11.6256 27.3495 11.7097C27.2457 11.7938 27.1245 11.8421 26.986 11.8547C26.8475 11.8673 26.7147 11.831 26.5878 11.746L23.714 9.93331Z" fill="#F2B855"/>
<path d="M41.4997 9.93331L38.6259 11.746C38.4989 11.8305 38.3662 11.8668 38.2277 11.8547C38.0892 11.8426 37.968 11.7943 37.8641 11.7097C37.7603 11.6251 37.6795 11.5195 37.6218 11.3929C37.5641 11.2662 37.5525 11.1241 37.5871 10.9665L38.3489 7.54062L35.804 5.23855C35.6886 5.12979 35.6166 5.00581 35.5879 4.8666C35.5593 4.72739 35.5679 4.59156 35.6136 4.45911C35.6593 4.32667 35.7285 4.21791 35.8213 4.13284C35.9141 4.04776 36.0411 3.99338 36.2022 3.9697L39.5607 3.66155L40.8591 0.435036C40.9168 0.290024 41.0064 0.181265 41.1278 0.108759C41.2492 0.0362528 41.3732 0 41.4997 0C41.6262 0 41.7501 0.0362528 41.8716 0.108759C41.993 0.181265 42.0825 0.290024 42.1402 0.435036L43.4386 3.66155L46.7972 3.9697C46.9588 3.99387 47.0857 4.04825 47.1781 4.13284C47.2704 4.21743 47.3396 4.32619 47.3858 4.45911C47.432 4.59204 47.4407 4.72811 47.4121 4.86732C47.3835 5.00653 47.3112 5.13028 47.1954 5.23855L44.6505 7.54062L45.4122 10.9665C45.4468 11.1236 45.4353 11.2657 45.3776 11.3929C45.3199 11.52 45.2391 11.6256 45.1352 11.7097C45.0314 11.7938 44.9102 11.8421 44.7717 11.8547C44.6332 11.8673 44.5005 11.831 44.3735 11.746L41.4997 9.93331Z" fill="#F2B855"/>
<path d="M59.2854 9.93331L56.4116 11.746C56.2846 11.8305 56.1519 11.8668 56.0134 11.8547C55.8749 11.8426 55.7537 11.7943 55.6498 11.7097C55.546 11.6251 55.4652 11.5195 55.4075 11.3929C55.3498 11.2662 55.3382 11.1241 55.3729 10.9665L56.1346 7.54062L53.5897 5.23855C53.4743 5.12979 53.4023 5.00581 53.3737 4.8666C53.345 4.72739 53.3536 4.59156 53.3993 4.45911C53.445 4.32667 53.5142 4.21791 53.607 4.13284C53.6998 4.04776 53.8268 3.99338 53.9879 3.9697L57.3464 3.66155L58.6448 0.435036C58.7026 0.290024 58.7921 0.181265 58.9135 0.108759C59.0349 0.0362528 59.1589 0 59.2854 0C59.4119 0 59.5358 0.0362528 59.6573 0.108759C59.7787 0.181265 59.8682 0.290024 59.9259 0.435036L61.2243 3.66155L64.5829 3.9697C64.7445 3.99387 64.8714 4.04825 64.9638 4.13284C65.0561 4.21743 65.1253 4.32619 65.1715 4.45911C65.2177 4.59204 65.2264 4.72811 65.1978 4.86732C65.1692 5.00653 65.097 5.13028 64.9811 5.23855L62.4362 7.54062L63.1979 10.9665C63.2326 11.1236 63.221 11.2657 63.1633 11.3929C63.1056 11.52 63.0248 11.6256 62.9209 11.7097C62.8171 11.7938 62.6959 11.8421 62.5574 11.8547C62.4189 11.8673 62.2862 11.831 62.1592 11.746L59.2854 9.93331Z" fill="#F2B855"/>
<path d="M77.0712 9.93331L74.1973 11.746C74.0704 11.8305 73.9377 11.8668 73.7992 11.8547C73.6607 11.8426 73.5395 11.7943 73.4356 11.7097C73.3317 11.6251 73.251 11.5195 73.1932 11.3929C73.1355 11.2662 73.124 11.1241 73.1586 10.9665L73.9204 7.54062L71.3755 5.23855C71.2601 5.12979 71.188 5.00581 71.1594 4.8666C71.1308 4.72739 71.1393 4.59156 71.185 4.45911C71.2307 4.32667 71.3 4.21791 71.3928 4.13284C71.4856 4.04776 71.6125 3.99338 71.7737 3.9697L75.1322 3.66155L76.4306 0.435036C76.4883 0.290024 76.5779 0.181265 76.6993 0.108759C76.8207 0.0362528 76.9447 0 77.0712 0C77.1977 0 77.3216 0.0362528 77.443 0.108759C77.5644 0.181265 77.654 0.290024 77.7117 0.435036L79.0101 3.66155L82.3687 3.9697C82.5302 3.99387 82.6572 4.04825 82.7495 4.13284C82.8419 4.21743 82.9111 4.32619 82.9573 4.45911C83.0034 4.59204 83.0122 4.72811 82.9836 4.86732C82.955 5.00653 82.8827 5.13028 82.7668 5.23855L80.222 7.54062L80.9837 10.9665C81.0183 11.1236 81.0068 11.2657 80.9491 11.3929C80.8914 11.52 80.8106 11.6256 80.7067 11.7097C80.6028 11.7938 80.4816 11.8421 80.3432 11.8547C80.2047 11.8673 80.0719 11.831 79.945 11.746L77.0712 9.93331Z" fill="#F2B855"/>
</svg>
